<svg t="1727576375005" class="icon" viewBox="0 0 1024 1024" version="1.1" xmlns="http://www.w3.org/2000/svg" p-id="8730" width="200" height="200"><path d="M873.085762 150.061615c-201.218984-201.218984-525.215654-201.218984-723.024147 0-201.218984 201.218984-201.218984 525.215654 0 723.024147 201.218984 201.218984 525.215654 201.218984 723.024147 0 201.218984-201.218984 201.218984-521.805162 0-723.024147zM753.718568 750.308077l-3.410491 3.410491c-13.641965 13.641965-30.694421 13.641965-44.336387 0L511.573689 559.320566l-194.398002 194.398002c-13.641965 13.641965-30.694421 13.641965-44.336386 0l-3.410492-3.410491c-13.641965-13.641965-13.641965-30.694421 0-44.336387l194.398002-194.398001-194.398002-194.398002c-13.641965-13.641965-13.641965-34.104913 0-44.336386 13.641965-13.641965 37.515404-13.641965 51.157369 0l190.987511 190.98751 194.398001-194.398002c13.641965-13.641965 30.694421-13.641965 44.336387 0s13.641965 37.515404 0 51.157369L559.320566 511.573689l194.398002 194.398001c13.641965 13.641965 13.641965 34.104913 0 44.336387z" fill="#B5B5B5" p-id="8731"></path></svg>