<?xml version="1.0" standalone="no"?><!DOCTYPE svg PUBLIC "-//W3C//DTD SVG 1.1//EN" "http://www.w3.org/Graphics/SVG/1.1/DTD/svg11.dtd"><svg t="1730462235099" class="icon" viewBox="0 0 1024 1024" version="1.1" xmlns="http://www.w3.org/2000/svg" p-id="7468" xmlns:xlink="http://www.w3.org/1999/xlink" width="200" height="200"><path d="M512 512m-469.333333 0a469.333333 469.333333 0 1 0 938.666666 0 469.333333 469.333333 0 1 0-938.666666 0Z" fill="#8b4513" p-id="7469" data-spm-anchor-id="a313x.search_index.0.i8.33e13a81tYX7gv" class="selected"></path><path d="M787.690667 236.842667a42.666667 42.666667 0 0 1 1.642666 11.733333v81.92a42.666667 42.666667 0 0 1-30.933333 41.002667L554.666667 429.696V682.666667a149.333333 149.333333 0 0 1-144.213334 149.248L405.333333 832a149.333333 149.333333 0 1 1 85.354667-271.872L490.666667 298.666667h1.386666a42.666667 42.666667 0 0 1 29.568-30.165334l213.333334-60.970666a42.666667 42.666667 0 0 1 52.736 29.312z" fill="#FFFFFF" p-id="7470"></path></svg>