<svg t="1726819353513" class="icon" viewBox="0 0 1024 1024" version="1.1" xmlns="http://www.w3.org/2000/svg" p-id="1935" width="200" height="200"><path d="M640 0H128a64 64 0 0 0-64 64v896a64 64 0 0 0 64 64h768a64 64 0 0 0 64-64V320L640 0z" fill="#3AAD73" p-id="1936"></path><path d="M640 0v256a64 64 0 0 0 64 64h256L640 0z" fill="#434854" p-id="1937"></path><path d="M704 320l256 256v-256z" fill="" p-id="1938"></path><path d="M480 480h288v128h-288zM256 480h192v128H256zM480 640h288v96h-288zM256 640h192v96H256zM480 768h288v96h-288zM256 768h192v96H256z" fill="#FFFFFF" p-id="1939"></path></svg>